<svg width="40" height="40" fill="none" xmlns="http://www.w3.org/2000/svg"><g clip-path="url(#a)"><rect width="40" height="40" rx="20" fill="#fff" fill-opacity=".01"/><path d="M20 40c11.046 0 20-8.954 20-20S31.046 0 20 0 0 8.954 0 20s8.954 20 20 20Z" fill="#EDECF8"/><path d="M26.3 23.464a1.05 1.05 0 1 0 0-2.1 1.05 1.05 0 0 0 0 2.1Z" fill="#4840BA"/><path fill-rule="evenodd" clip-rule="evenodd" d="M27.085 11.724a.7.7 0 0 0-.894-.454l-6.34 2.152a.7.7 0 0 1-.224.037H11.6a2.1 2.1 0 0 0-2.093 1.93c0 .002-.003.003-.004.001 0-.002-.003 0-.003 0v10.7c0 1.159.94 2.1 2.1 2.1h18.2a.7.7 0 0 0 .7-.7V17.31a.7.7 0 0 0-.7-.7h-.674a.7.7 0 0 1-.669-.492l-1.372-4.394ZM11.6 14.509h3.99c.197 0 .243.277.056.34l-4.308 1.463c-.209.071-.452.048-.583-.13a1.05 1.05 0 0 1 .845-1.673Zm-1.05 3.85a.7.7 0 0 1 .7-.7h17.5a.7.7 0 0 1 .7.7v8.08a.7.7 0 0 1-.7.7H11.6c-.58 0-1.05-.47-1.05-1.05v-7.73Zm14.58-1.75a1.75 1.75 0 0 0 1.671-2.272l-.398-1.273a.7.7 0 0 0-.893-.454l-9.773 3.318c-.375.127-.284.681.112.681h9.282Z" fill="#4840BA"/></g><defs><clipPath id="a"><rect width="40" height="40" rx="20" fill="#fff"/></clipPath></defs></svg>