<svg width="48" height="48" fill="none" xmlns="http://www.w3.org/2000/svg"><rect y=".005" width="48" height="48" rx="24" fill="#EDECF8"/><path fill-rule="evenodd" clip-rule="evenodd" d="M24.389 10.88c-.25-.1-.53-.1-.781 0L9.05 16.657a1.016 1.016 0 0 0-.043 1.88l4.455 1.999c.371.166.61.53.61.93v7.21c0 .184.069.361.194.498 1.123 1.222 4.127 3.466 9.732 3.466 1.704 0 3.167-.207 4.41-.53.707-.184 1.445.315 1.445 1.034v1.543c0 .19-.055.378-.157.54l-.213.335a1.953 1.953 0 0 0 .385 2.535l.062.053c.393.338.98.338 1.373 0l.062-.053c.744-.64.906-1.711.385-2.535l-.213-.335a1.01 1.01 0 0 1-.157-.54v-3.134c0-.371.208-.71.527-.908.844-.523 1.442-1.056 1.823-1.47a.737.737 0 0 0 .196-.5v-7.208c0-.401.237-.765.608-.931l4.456-2a1.016 1.016 0 0 0-.043-1.879L24.389 10.88Zm8.01 17.268c0 .149-.03.264-.142.366-.335.306-.877.073-.877-.376v-3.736a.509.509 0 0 1 1.018 0v3.746ZM29.23 30.29a.967.967 0 0 0 .623-.914v-3.552c0-1.49-1.57-2.48-2.95-1.862l-2.471 1.11a1.059 1.059 0 0 1-.867 0l-6.491-2.914c-.69-.31-1.475.186-1.475.931v4.867c0 .272.108.536.318.715 1.187 1.01 3.718 2.48 8.081 2.48 2.182 0 3.906-.367 5.232-.86Zm1.698-10.253c.285.15.625.161.92.03l4.39-1.94a.508.508 0 0 0-.019-.942l-11.83-4.696c-.25-.1-.53-.1-.781 0l-11.838 4.7a.508.508 0 0 0-.022.94l11.817 5.302c.275.123.591.123.866 0l4.294-1.927a.508.508 0 0 0 .03-.916l-5.119-2.69a.736.736 0 0 1-.31-1.009.773.773 0 0 1 1.034-.303l6.568 3.451Z" fill="#4840BA"/></svg>