<svg width="48" height="48" fill="none" xmlns="http://www.w3.org/2000/svg"><rect y=".005" width="48" height="48" rx="24" fill="#EDECF8"/><path fill-rule="evenodd" clip-rule="evenodd" d="M23.077 11.013a.684.684 0 0 0-.77-.149.747.747 0 0 0-.431.686v13.906c0 .208.082.405.226.546a.69.69 0 0 0 .535.197l12.77-.993a.715.715 0 0 0 .615-.49.772.772 0 0 0-.175-.79l-12.77-12.913Zm.725 13.602a.483.483 0 0 1-.508-.496v-9.65c0-.438.501-.661.802-.358l8.86 8.961c.295.298.115.822-.293.853l-8.86.69ZM35.828 26.947l.694.154a.772.772 0 0 0-.16-.644.693.693 0 0 0-.586-.254l-22.701 1.739a.704.704 0 0 0-.537.327.776.776 0 0 0-.086.646l.926 2.989a.549.549 0 0 1-.523.7 5.268 5.268 0 0 0-3.232 1.099l-.931.712a.77.77 0 0 0-.155 1.04c.23.333.674.406.99.164l.931-.712a3.876 3.876 0 0 1 4.749 0 5.24 5.24 0 0 0 6.42 0 3.876 3.876 0 0 1 4.748 0 5.24 5.24 0 0 0 6.42 0 3.876 3.876 0 0 1 4.747 0l.931.712c.317.242.76.17.991-.163a.77.77 0 0 0-.155-1.041l-.93-.712a5.27 5.27 0 0 0-3.194-1.099c-.448-.001-.808-.6-.574-1a12 12 0 0 0 .177-.314c.698-1.283 1.128-2.312 1.385-3.03a11.916 11.916 0 0 0 .327-1.064 3.57 3.57 0 0 0 .015-.065l.004-.02.002-.006v-.004l-.694-.154Zm-8.052 7.118c1.536.81 3.31-.158 4.432-1.525.508-.619.964-1.284 1.348-1.99.438-.805.76-1.497.995-2.06.14-.333-.113-.69-.458-.664l-19.41 1.487c-.306.023-.51.342-.415.649l.885 2.854c.078.253.251.458.468.594.144.09.284.188.421.293a3.876 3.876 0 0 0 4.749 0 5.24 5.24 0 0 1 6.42 0c.18.138.37.26.566.362ZM20.396 11.821a.74.74 0 0 1 .534.722v13.162c0 .392-.29.717-.662.743l-7.095.497a.7.7 0 0 1-.644-.342.777.777 0 0 1-.025-.758l7.094-13.659a.697.697 0 0 1 .798-.365Zm-5.617 12.753c-.178.344.075.76.447.734l3.844-.27a.487.487 0 0 0 .441-.495v-7.13c0-.515-.653-.69-.888-.238l-3.844 7.4Z" fill="#4840BA"/></svg>