<svg width="40" height="40" fill="none" xmlns="http://www.w3.org/2000/svg"><path d="M0 20C0 8.954 8.954 0 20 0s20 8.954 20 20-8.954 20-20 20S0 31.046 0 20Z" fill="#EDECF8"/><path fill-rule="evenodd" clip-rule="evenodd" d="M19.579 7.23a.352.352 0 0 1 .66 0l.122.318c.009.022.026.04.048.049l.308.125c.3.121.3.557 0 .678l-.308.125a.086.086 0 0 0-.048.049l-.122.317a.352.352 0 0 1-.66 0l-.122-.317a.085.085 0 0 0-.047-.049L19.1 8.4c-.299-.121-.299-.557 0-.678l.31-.125a.085.085 0 0 0 .047-.05l.122-.316Zm-5.761 3.382a.352.352 0 0 1 .66 0l.122.317c.009.022.026.04.048.048l.308.125c.3.122.3.558 0 .68l-.308.124a.085.085 0 0 0-.048.049l-.121.317a.352.352 0 0 1-.661 0l-.122-.317a.085.085 0 0 0-.047-.049l-.31-.125c-.299-.121-.299-.557 0-.679l.31-.125a.085.085 0 0 0 .047-.048l.122-.317Zm-3.454 2.958a.352.352 0 0 0-.661 0l-.122.317a.085.085 0 0 1-.047.049l-.31.125c-.299.121-.299.557 0 .678l.31.125a.085.085 0 0 1 .047.05l.122.316a.352.352 0 0 0 .66 0l.122-.317a.085.085 0 0 1 .048-.049l.308-.125c.3-.121.3-.557 0-.678l-.308-.125a.085.085 0 0 1-.048-.049l-.121-.317Zm10.692 6.045a.834.834 0 0 1-.463-.476l-.02-.053a.707.707 0 0 0-1.327 0l-.02.053a.834.834 0 0 1-.464.476l-.051.02c-.602.244-.602 1.12 0 1.363l.05.02c.213.087.38.26.465.477l.02.052a.707.707 0 0 0 1.327 0l.02-.052a.834.834 0 0 1 .463-.476l.051-.02c.602-.245.602-1.12 0-1.364l-.05-.02Zm-10.693-.128a.352.352 0 0 0-.66 0l-.122.317a.085.085 0 0 1-.047.048l-.31.125c-.299.122-.299.558 0 .679l.31.125a.086.086 0 0 1 .047.049l.122.317a.352.352 0 0 0 .66 0l.122-.317a.086.086 0 0 1 .048-.049l.308-.125c.3-.121.3-.557 0-.679l-.308-.125a.086.086 0 0 1-.048-.048l-.121-.317Zm19.092 0a.352.352 0 0 1 .66 0l.122.317c.009.022.026.04.048.048l.308.125c.3.122.3.558 0 .679l-.308.125a.085.085 0 0 0-.048.049l-.121.317a.352.352 0 0 1-.661 0l-.122-.317a.086.086 0 0 0-.047-.049l-.31-.125c-.299-.121-.299-.557 0-.679l.31-.125a.086.086 0 0 0 .047-.048l.122-.317Zm-19.091 5.916a.352.352 0 0 0-.661 0l-.122.317a.085.085 0 0 1-.047.049l-.31.125c-.299.121-.299.557 0 .679l.31.125a.085.085 0 0 1 .047.048l.122.317a.352.352 0 0 0 .66 0l.122-.317a.085.085 0 0 1 .048-.048l.308-.125c.3-.122.3-.558 0-.68l-.308-.124a.085.085 0 0 1-.048-.049l-.121-.317Zm19.09 0a.352.352 0 0 1 .662 0l.121.317c.009.023.026.04.048.049l.308.125c.3.121.3.557 0 .679l-.308.125a.085.085 0 0 0-.048.048l-.121.317a.352.352 0 0 1-.661 0l-.122-.317a.086.086 0 0 0-.047-.048l-.31-.125c-.299-.122-.299-.558 0-.68l.31-.124a.086.086 0 0 0 .047-.049l.122-.317ZM26 10.612a.352.352 0 0 0-.66 0l-.122.317a.085.085 0 0 1-.047.048l-.31.125c-.299.122-.299.558 0 .68l.31.124a.085.085 0 0 1 .047.049l.122.317a.352.352 0 0 0 .66 0l.122-.317a.085.085 0 0 1 .048-.049l.308-.125c.3-.121.3-.557 0-.679l-.308-.125a.085.085 0 0 1-.048-.048L26 10.612ZM14.674 28.449a.56.56 0 0 0-1.052 0 .354.354 0 0 1-.197.202c-.478.194-.478.888 0 1.081.09.037.161.11.197.202a.56.56 0 0 0 1.052 0 .355.355 0 0 1 .197-.202c.478-.193.478-.887 0-1.081a.354.354 0 0 1-.197-.202Zm10.666-.088a.352.352 0 0 1 .66 0l.122.317c.009.023.026.04.048.05l.308.124c.3.122.3.557 0 .679l-.308.125a.085.085 0 0 0-.048.049l-.122.317a.352.352 0 0 1-.66 0l-.122-.317a.085.085 0 0 0-.047-.05l-.31-.124c-.299-.122-.299-.557 0-.679l.31-.125a.085.085 0 0 0 .047-.049l.122-.317Zm-5.1 3.381a.352.352 0 0 0-.661 0l-.122.317a.085.085 0 0 1-.047.049l-.31.125c-.299.122-.299.557 0 .679l.31.125a.085.085 0 0 1 .047.048l.122.317a.352.352 0 0 0 .66 0l.122-.317a.086.086 0 0 1 .048-.048l.308-.125c.3-.122.3-.557 0-.679l-.308-.125a.086.086 0 0 1-.048-.049l-.122-.317Zm9.215-18.172a.352.352 0 0 1 .66 0l.122.317c.009.022.026.04.048.049l.308.125c.3.121.3.557 0 .678l-.308.125a.085.085 0 0 0-.048.05l-.121.316a.352.352 0 0 1-.661 0l-.122-.317a.086.086 0 0 0-.047-.049l-.31-.125c-.299-.121-.299-.557 0-.678l.31-.125a.086.086 0 0 0 .047-.049l.122-.317Zm-14.16 9.425a.834.834 0 0 1-.463-.476l-.02-.052a.706.706 0 0 0-1.327 0l-.02.052a.835.835 0 0 1-.464.477l-.051.02c-.602.244-.602 1.12 0 1.363l.05.02c.213.086.38.259.464.477l.02.052a.706.706 0 0 0 1.328 0l.02-.052a.834.834 0 0 1 .463-.476l.051-.021c.602-.244.602-1.119 0-1.363l-.05-.02Zm11.039-.528.02.052c.083.218.251.39.463.477l.051.02c.602.244.602 1.12 0 1.363l-.05.02a.834.834 0 0 0-.464.477l-.02.052a.706.706 0 0 1-1.327 0l-.02-.052a.834.834 0 0 0-.464-.476l-.051-.021c-.602-.244-.602-1.119 0-1.363l.05-.02a.834.834 0 0 0 .465-.477l.02-.052a.706.706 0 0 1 1.327 0Zm-11.039-6.233a.835.835 0 0 1-.463-.476l-.02-.053a.707.707 0 0 0-1.327 0l-.02.053a.835.835 0 0 1-.464.476l-.051.02c-.602.244-.602 1.12 0 1.363l.05.02c.213.087.38.26.464.477l.02.052a.707.707 0 0 0 1.328 0l.02-.052a.835.835 0 0 1 .463-.476l.051-.02c.602-.245.602-1.12 0-1.364l-.05-.02Zm5.278-3.91.02.053c.083.217.251.39.463.476l.051.02c.602.244.602 1.12 0 1.363l-.05.021a.834.834 0 0 0-.464.476l-.02.052a.707.707 0 0 1-1.327 0l-.02-.052a.834.834 0 0 0-.464-.476l-.051-.02c-.602-.245-.602-1.12 0-1.364l.05-.02a.835.835 0 0 0 .465-.476l.02-.053a.707.707 0 0 1 1.327 0Zm6.244 3.91a.834.834 0 0 1-.463-.476l-.02-.053a.707.707 0 0 0-1.327 0l-.02.053a.835.835 0 0 1-.464.476l-.051.02c-.602.244-.602 1.12 0 1.363l.05.02c.213.087.38.26.465.477l.02.052a.707.707 0 0 0 1.327 0l.02-.052a.835.835 0 0 1 .463-.476l.051-.02c.602-.245.602-1.12 0-1.364l-.05-.02Zm-6.244 9.614.02.052c.083.218.251.39.463.476l.051.021c.602.244.602 1.119 0 1.363l-.05.02a.834.834 0 0 0-.464.477l-.02.052a.706.706 0 0 1-1.327 0l-.02-.052a.834.834 0 0 0-.464-.477l-.051-.02c-.602-.244-.602-1.12 0-1.363l.05-.02a.834.834 0 0 0 .465-.477l.02-.052a.706.706 0 0 1 1.327 0Z" fill="#4840BB"/></svg>